<?xml version="1.0" encoding="UTF-8"?>
<svg xmlns="http://www.w3.org/2000/svg" fill="none" height="65" viewBox="0 0 210 65" width="210">
  <g fill="#fafaf2">
    <path d="m127.687 43.4946v10.1937h4.794l-.039 1.4088h-6.222v-11.6025h1.487zm-23.949 0v11.6025h6.633l.039-1.3696h-5.204v-4.0306h4.246v-1.2718h-4.246v-3.5218h4.97l-.039-1.3891h-6.399zm16.318 3.3457c0-1.5261-.587-2.0348-1.898-2.0348h-2.034v4.1088h1.976c1.369 0 1.956-.5283 1.956-2.0935m-.547 3.0326 2.778 5.2437h-1.741l-2.388-4.9697h-2.034v4.9697h-1.468v-11.6025h3.483c2.328 0 3.424.9978 3.424 3.287 0 1.8196-.724 2.8371-2.074 3.0718m-23.6747 3.9523c1.2718 0 1.9762-.5283 1.9762-2.1131 0-1.4283-.6457-2.0152-2.0544-2.0152h-2.4653v4.1283h2.524zm-2.5435-5.3023h2.387c1.2131 0 1.7414-.587 1.7414-1.8587 0-1.3501-.5674-1.8196-1.8001-1.8196h-2.3283zm4.0305.4696c1.2131.313 1.9371 1.1935 1.9371 2.837 0 2.0935-.9979 3.2871-3.4632 3.2871h-3.9327v-11.6025h3.7957c2.1131 0 3.1893.9391 3.1893 2.8762 0 1.4282-.6261 2.2304-1.5262 2.5435v.0391zm39.1317 6.1241h1.507v-11.6025h-1.507zm13.207-11.6025v7.5719l.039 1.2327h-.039l-.646-1.0566-4.598-7.7284h-1.33v11.6024h1.311v-9.0393l.626 1.0761 4.852 7.9828h1.057v-11.6025h-1.272zm21.835-11.8568c-.332.0978-.704.1174-1.095.1174-1.781 0-2.407-.7631-2.407-3.7762s.646-3.7762 2.72-3.7762c.861 0 1.8.1956 2.524.4696l.254-2.1523c-.802-.3326-1.917-.5282-2.915-.5282-3.581 0-5.126 1.8783-5.126 6.0262s1.369 6.0067 5.008 6.0067c1.174 0 2.427-.2739 3.209-.6261v-5.8697h-2.172zm-56.291-9.4503h-2.484v11.6025h2.484zm-11.152 11.6025h2.465v-9.3329h2.818l-.039-2.2696h-7.983l-.059 2.2696h2.818v9.3329zm-9.4699-1.9761c-1.037 0-1.9761-.2935-2.8762-.7827l-.3326 2.1327c.9.5283 2.0349.8218 3.2479.8218 2.5045 0 3.9523-1.3501 3.9523-3.6393 0-3.7957-4.8327-3.1305-4.8327-4.9892 0-.6457.3717-1.1544 1.6826-1.1544.7827 0 1.624.1565 2.4849.45l.2739-2.0935c-.8022-.3718-1.8783-.5674-2.9153-.5674-2.6805 0-3.874 1.5261-3.874 3.4827 0 3.7957 4.8327 3.1305 4.8327 5.0284 0 .8608-.5087 1.2913-1.6826 1.2913m64.9-3.8153.039 1.2326h-.039l-4.305-7.0241h-2.093v11.6025h2.152v-7.3567l.646 1.0761 3.972 6.2806h1.721v-11.6025h-2.132v5.7915zm-33.595-.9392h-3.795v-2.5827h4.539l-.039-2.2696h-6.927v11.6025h2.427v-4.598h3.756zm23.029 2.8175v-7.6698h-2.426v7.6307c0 1.35-.528 1.8978-1.82 1.8978-1.291 0-1.839-.5674-1.839-1.8978v-7.6307h-2.445v7.6698c0 2.7783 1.467 4.1479 4.284 4.1479 2.818 0 4.246-1.35 4.246-4.1479zm-11.681-7.6698h-7.982l-.059 2.2696h2.817v9.3329h2.466v-9.3329h2.817l-.039-2.2696zm7.533-10.3502v-11.602511h-2.132v5.791451l.039 1.23264h-.039l-4.305-7.024091h-2.093v11.602511h2.152v-7.33718l.646 1.07611 3.971 6.28057h1.742zm-51.5556 0h2.4653v-9.33289h2.8175l-.0392-2.269621h-7.9828l-.0587 2.269621h2.8174v9.33289zm112.0726-2.21097v-2.75876h3.816v-2.03484h-3.816v-2.38702h4.54l-.039-2.230487h-6.927v11.602477h7.142l.058-2.19137zm-36.783-.05869h-4.266v-9.332851h-2.445v11.602511h6.652l.059-2.2501zm-42.615-2.54355h3.581v4.81321h2.426v-11.602511h-2.426v4.539241h-3.581v-4.539241h-2.426v11.602511h2.426zm-16.748 2.60224h-4.774v-2.75876h3.815v-2.03484h-3.815v-2.38702h4.559l-.039-2.230487h-6.927v11.602477h7.142l.059-2.19137zm46.195-3.60009c0-3.09138-.528-3.73705-2.113-3.73705s-2.113.66523-2.113 3.73705.547 3.75662 2.113 3.75662c1.565 0 2.093-.70437 2.093-3.75662m-2.093 6.00666c-3.229 0-4.657-1.7218-4.657-6.00666 0-4.28489 1.37-5.9871086 4.657-5.9871086s4.656 1.7022186 4.656 5.9871086c0 4.28486-1.369 6.00666-4.656 6.00666zm42.79-.1956h2.485v-11.602511h-2.485zm-78.791.1956c.919 0 1.917-.2348 2.602-.5674l-.254-2.05439c-.568.25435-1.233.43045-1.996.43045-1.898 0-2.563-.84133-2.563-3.89358 0-2.8566.626-3.67836 2.524-3.67836.763 0 1.487.15653 2.015.35219l.254-2.152233c-.587-.254354-1.604-.469577-2.426-.469577-3.385 0-4.911 1.93701-4.911 5.92841 0 4.22619 1.526 6.08489 4.755 6.08489m60.575-5.98706c0-3.07182-.528-3.73705-2.113-3.73705s-2.113.66523-2.113 3.73705.548 3.75662 2.113 3.75662c1.566 0 2.094-.70437 2.094-3.75662m2.563 0c0 4.38276-1.37 6.00666-4.657 6.00666s-4.656-1.7218-4.656-6.00666c0-4.28489 1.369-5.9871086 4.656-5.9871086s4.657 1.7022186 4.657 5.9871086zm9.372 3.63922c-.333.09783-.704.1174-1.096.1174-1.78 0-2.406-.76306-2.406-3.77618s.645-3.77619 2.7-3.77619c.861 0 1.8.19566 2.543.46958l.255-2.15223c-.803-.332617-1.918-.5282743-2.916-.5282743-3.58 0-5.126 1.8783143-5.126 6.0262443 0 4.14789 1.37 6.00669 5.009 6.00669 1.174 0 2.426-.2544 3.209-.6261v-5.86974h-2.172z"></path>
    <path d="m3.40445 44.1397.95873-.6065 16.45482 2.5631-.6261.6456-16.80701-2.6022zm43.39695-19.2918-.5478.5674 18.5092 8.1589-.1565-.8804zm-7.0632-3.111-.7631.4696 3.561 1.5653.5478-.5674-3.3457-1.487zm39.0729 16.9831-7.6894 16.9439-46.547-7.9241 1.2522-1.2914 43.8078 7.4742-8.2372-45.72513-54.4125 55.95793-6.985-20.9353 15.5157-32.4008 20.231 8.9219-1.5261.9392-18.0005-7.9241-13.85264 28.9377 59.89094-36.94009 8.609 47.85769 5.9676-13.1285-7.7677-3.424-.313-1.761zm-71.18043 22.6571 51.41893-52.90571-57.28868 35.33571z"></path>
  </g>
</svg>
