<svg xmlns="http://www.w3.org/2000/svg" width="120" height="54" fill="none" viewBox="0 0 120 54"><path fill="#20201b" d="M64.276 39.671q-1.199.001-2.126-.545a3.8 3.8 0 0 1-1.451-1.524q-.524-.983-.524-2.288c0-.871.171-1.649.514-2.297q.515-.974 1.46-1.517.945-.545 2.16-.545 1.214.001 2.092.545a3.7 3.7 0 0 1 1.34 1.425q.466.88.466 1.902v.36q0 .193-.017.428h-7.07v-1.073h5.755q-.052-1.156-.786-1.802-.734-.645-1.831-.645-.725 0-1.358.32a2.5 2.5 0 0 0-1.02.947q-.39.627-.39 1.55v.469q0 1.056.398 1.76.396.706 1.037 1.047a2.8 2.8 0 0 0 1.35.344q.894 0 1.502-.41t.86-1.132h1.334q-.202.77-.709 1.375a3.6 3.6 0 0 1-1.257.954q-.75.352-1.73.352m6.641-.201v-8.315h1.35v1.309q.287-.638.776-.997.49-.361 1.197-.361h1.316v1.257h-1.45q-.525 0-.937.293-.414.295-.658.965t-.244 1.793v4.056zm7.092 0V27.402h1.35V39.47zm4.242-9.956V27.72h1.754v1.794zm.219 9.956v-8.315h1.35v8.315zm4.427 0v-8.314h1.35v1.409a3.04 3.04 0 0 1 1.171-1.182 3.33 3.33 0 0 1 1.68-.428q1.467 0 2.361.888t.894 2.75v4.877h-1.35v-4.727q0-1.325-.564-1.977-.566-.654-1.63-.655c-.707 0-1.34.263-1.83.788q-.734.789-.734 2.263v4.308h-1.35zm-29.341-4.668a2.9 2.9 0 0 0-1.014-1.03c-.329-.2-.696-.303-1.083-.354.263-.07.518-.16.763-.283a2.6 2.6 0 0 0 1.029-.921q.396-.605.397-1.51 0-.822-.406-1.492-.404-.67-1.223-1.073t-2.066-.402H49.75V39.47h4.37q1.248 0 2.092-.428.844-.426 1.282-1.156a3.07 3.07 0 0 0 .439-1.617q0-.821-.38-1.467zm-1.67 2.975q-.667.57-1.899.57h-2.885V28.86h2.733q1.216.001 1.815.544.599.546.599 1.45c0 .603-.203 1.121-.607 1.484q-.608.545-1.772.545h-3.151v1.09h3.218q1.215 0 1.916.603.7.604.7 1.608c0 .67-.223 1.213-.667 1.593m-1.271-17.571q-1.9 0-3.282-.817a5.44 5.44 0 0 1-2.124-2.28q-.74-1.464-.74-3.387 0-1.92.74-3.394a5.5 5.5 0 0 1 2.124-2.298q1.382-.825 3.282-.826 2.295 0 3.75 1.13 1.455 1.133 1.817 3.162h-2.603q-.217-1.023-.976-1.598-.76-.576-2.025-.576-1.157 0-1.988.53-.832.53-1.284 1.518-.451.987-.452 2.353 0 1.365.452 2.344.451.979 1.284 1.508.831.53 1.988.53 1.266 0 2.017-.54.749-.537.985-1.562h2.585q-.345 1.994-1.799 3.098-1.455 1.103-3.75 1.104zm7.825-.216v-8.908h2.35v8.909zm.054-10.38V7.349h2.278v2.263zm8.782 10.38q-.904 0-1.527-.206a1.57 1.57 0 0 1-.931-.808q-.308-.602-.307-1.733v-4.202h-1.537v-1.959h1.537V8.694h2.35v2.388h2.26v1.959h-2.26v3.914q0 .45.09.673.09.225.344.298.253.071.687.07h1.085v1.995h-1.79m3.592 3.95v-1.85h1.916q.27 0 .451-.062a.77.77 0 0 0 .344-.278q.163-.216.344-.664l.778-1.67-.127 1.023-3.905-9.356h2.55l2.495 6.232 2.603-6.232h2.495l-4.772 10.81q-.29.666-.516 1.07-.225.402-.442.61a1.2 1.2 0 0 1-.516.287q-.3.08-.768.08zm12.019-3.951V7.42h2.35v10.739h5.605v1.832zm32.716-4.955a3.2 3.2 0 0 0-1.075-1.132c-.33-.21-.7-.32-1.091-.383q.39-.104.748-.281a2.76 2.76 0 0 0 1.094-.988q.415-.646.415-1.599c0-.635-.153-1.212-.461-1.697q-.46-.726-1.356-1.13-.895-.405-2.214-.405h-5.153v12.572h5.315q1.338 0 2.269-.44.93-.44 1.418-1.221a3.27 3.27 0 0 0 .488-1.77q0-.825-.398-1.525zm-6.743-5.748h2.405q1.03 0 1.537.458.505.456.505 1.248c0 .527-.175.958-.523 1.257q-.525.45-1.483.449h-2.441V9.286m4.194 8.332q-.56.469-1.572.468h-2.622V14.44h2.585q1.013 0 1.592.493.578.495.578 1.357t-.561 1.328M103.805 7.42h-2.658l-4.61 12.57h2.46l1.014-2.89h4.931l.089.255.926 2.636h2.477zm-3.15 7.848 1.822-5.19 1.431 4.078.391 1.111zM12.829 54a.76.76 0 0 1-.661-.38.754.754 0 0 1 .279-1.036L37.07 38.462V7.68a.76.76 0 0 1 .763-.759.76.76 0 0 1 .763.759v31.237a.76.76 0 0 1-.517.717l-24.87 14.264a.8.8 0 0 1-.382.102z"/><path fill="#20201b" d="M12.83 54a.76.76 0 0 1-.382-.102L.383 46.978a.76.76 0 0 1-.382-.656V15.1a.76.76 0 0 1 .763-.758.76.76 0 0 1 .763.758v30.783l11.684 6.7c.365.21.49.673.279 1.036a.76.76 0 0 1-.661.38"/><path fill="#20201b" d="M.764 15.858a.76.76 0 0 1-.66-.38.755.755 0 0 1 .278-1.035L25.387.1a.77.77 0 0 1 .763 0l12.067 6.921c.365.21.49.673.279 1.036a.764.764 0 0 1-1.042.278L25.768 1.634 1.146 15.757a.76.76 0 0 1-.382.101"/></svg>