<?xml version="1.0" encoding="UTF-8"?>
<svg xmlns="http://www.w3.org/2000/svg" fill="none" height="55" viewBox="0 0 330 55" width="330">
  <g fill="#fafaf2">
    <path d="m0 0v55.0065h330v-55.0065zm165 53.9005h-163.89407v-52.79455h163.89407zm109.994 0h-108.907v-52.79455h108.907zm53.9 0h-52.795v-52.79455h52.795z"></path>
    <path d="m259.219 18.6268v12.1073c0 .1552-.097.2134-.194.0582l-6.908-12.2625c-.077-.1358-.233-.2134-.388-.2134h-2.949c-.194 0-.31.1358-.31.3104v17.6952c0 .1747.135.3105.31.3105h2.561c.194 0 .311-.1358.311-.3105v-12.0878c0-.1552.097-.2134.194-.0582l6.907 12.2431c.078.1358.233.2134.388.2134h2.949c.194 0 .311-.1358.311-.3105v-17.6952c0-.194-.136-.3104-.311-.3104h-2.561c-.175 0-.31.1358-.31.3104zm-18.511 18.0057h2.6c.175 0 .311-.1358.311-.3105v-17.6952c0-.194-.136-.3104-.311-.3104h-2.6c-.174 0-.31.1358-.31.3104v17.6952c0 .1747.136.3105.31.3105zm-10.341-3.2014v-14.8043c0-.194-.136-.3104-.311-.3104h-2.6c-.174 0-.31.1358-.31.3104v17.6952c0 .1747.136.3105.31.3105h8.926c.194 0 .31-.1358.31-.3105v-2.4059c0-.1746-.136-.3104-.31-.3104h-5.86c-.097 0-.155-.0776-.155-.1552m-16.939-12.1073h2.387c2.115 0 3.822 1.1254 3.822 3.4537s-1.707 3.4537-3.842 3.4537h-2.347c-.097 0-.155-.0777-.155-.1553v-6.5969c0-.097.058-.1552.155-.1552m6.053 15.2893h3.299c.271 0 .33-.194.194-.3881l-3.919-5.3163s-.059-.1746.058-.2328c2.328-.9507 3.88-3.0074 3.88-5.879 0-4.0746-3.085-6.4805-7.024-6.4805h-5.607c-.194 0-.31.1358-.31.3105v17.6952c0 .1746.136.3104.31.3104h2.6c.175 0 .311-.1358.311-.3104v-4.8701c0-.097.077-.1552.155-.1552h1.998s.155.0582.214.097l3.512 5.0253c.077.1358.213.2134.368.2134m-14.241-15.6191v-2.406c0-.194-.136-.3104-.311-.3104h-9.526c-.194 0-.311.1358-.311.3104v17.6952c0 .1747.136.3105.311.3105h9.526c.194 0 .311-.1358.311-.3105v-2.4059c0-.1746-.136-.3104-.311-.3104h-6.5c-.097 0-.155-.0776-.155-.1552v-4.4044c0-.0971.078-.1553.155-.1553h6.5c.194 0 .311-.1358.311-.3104v-2.3865c0-.1941-.136-.3105-.311-.3105h-6.5c-.097 0-.155-.0582-.155-.1552v-4.2104c0-.097.078-.1552.155-.1552h6.5c.194 0 .311-.1358.311-.3104m-20.412 12.5341h-2.774c-.098 0-.156-.0776-.156-.1552v-4.4044c0-.0971.058-.1553.156-.1553h2.774c1.708 0 2.639.9702 2.639 2.3478 0 1.3775-.951 2.3477-2.639 2.3477m-.272-12.2237c1.65 0 2.562.8925 2.562 2.2507s-.912 2.2701-2.562 2.2701h-2.522c-.097 0-.155-.0582-.155-.1552v-4.2104c0-.097.058-.1552.155-.1552zm3.823 5.7626c1.3-.8343 2.095-2.1537 2.095-3.8417 0-2.794-1.94-4.9477-5.491-4.9477h-5.976c-.174 0-.31.1358-.31.3104v17.6952c0 .1747.136.3105.31.3105h6.209c3.667 0 5.608-2.2313 5.608-5.1611 0-1.9015-.912-3.3567-2.445-4.1522-.097-.0776-.097-.1552 0-.2134z"></path>
    <path d="m310.578 43.1129s-.97-6.3834-1.417-9.061c.136-.0194.194-.0388.194-.0388.427-.0776.582-.5627.388-.8731-1.086-1.8821-1.474-4.2104-1.474-6.5193 0-1.4358.233-2.794.679-4.0746.019-.0776.058-.1552.077-.2134 0-.0388.039-.1358.059-.1552.291-.6403.815-2.0179.97-3.5701.136-1.2612-.039-2.3089-.252-3.279-.097-.4657-.369-1.2612-.544-1.6105-.039-.0582-.058-.097-.077-.1552.388-.388.465-1.0283.174-1.5522-.349-.6209-1.086-.8537-1.63-.5433-.058.0388-.194.1358-.252.1747-.097-.0777-.155-.1165-.155-.1165s-.155-.097-.291-.1746l-.058-.0194c-.563-.2522-1.164-.388-1.824-.388-.311 0-.621.0388-.931.097-.66.1358-1.242.4074-1.766.7955-.272.0776-.563.1164-.563.1164l-.737.0388c-.349 0-.737 0-.737 0-.175 0-.311.1358-.311.3104l.117 1.0284c.019.2522.135.485.349.6403h.019s.097.097.117.1358c.077.2134.252.4462.349.5045.058.0388.136 0 .136-.0388.136-.5433.465.0388 1.106-.2911.155-.0776.252.3105.174.4657l-.058.1552c-.136.3298-.427.5627-.776.6209-.272.0388-.446.0582-.427.1164.039.3104 0 .5821.311.7761.097.0582.135.0582.135.0582.485.1358 1.902.6791.097 2.8134 0 0-.174.194-.31.388-.039.0583-.078.1165-.097.1747l-.039.0776-5.433-2.0373c-.155-.0582-.368-.2328-.465-.388l-.544-.912c-.329-.4656-.62-.6403-1.202-.6791-.427-.0388-.757 0-.757 0-.155 0-.252.0388-.291.1359-.039.097-.039.3686.116.679l.466.8538.621 1.3775c.058.1553.155.3105.291.4075l5.568 4.2104-5.879 2.9298c-.174.097-.368.1164-.543.0582-.213-.0582-.524-.1552-.524-.1552-.97-.4269-1.688-.1359-2.115.2328l-.174.1552c-.156.1552-.097.3687.077.4657 0 0 .932.5432 1.126.6791l1.435.8537c.214.1358.486.1746.738.1164l5.704-1.1448c.136 2.1925.679 3.997.679 3.997-1.028.9895-2.445 2.8716-2.91 5.4715-.272 1.5328-.194 2.9298.233 4.579-.796.0389-1.572.1553-2.212.6015-.602.4269-.738 1.1836-.738 1.5522h4.463.369c.465 0 .582-.4656.582-.4656.039-.1358.058-.3299.077-.4657.136-.8925.253-1.8238 1.048-3.4148.64-1.3 1.766-2.4448 1.766-2.4448s1.882 2.7746 5.044 4.6761c-.601.0388-1.397.2328-1.862.5044-.737.4075-.932 1.2418-.932 1.6492h4.618c.311 0 .582-.2134.679-.485 0-.0194 0-.0582.02-.097 0-.0194 0-.0388 0-.0582 0-.0388 0-.0971 0-.1359z"></path>
    <path d="m18.0058 11.544c.5044.2717.8925.6791 1.1641 1.1836.2717.5045.4075 1.106.4075 1.785 0 .6791-.1358 1.2806-.4075 1.7851-.2716.5045-.6597.9119-1.1641 1.1836-.5045.2716-1.0672.4268-1.7075.4268h-2.0372s-.097-.0388-.097-.097v-6.5969s.0387-.097.097-.097h2.0372c.6403 0 1.203.1358 1.7075.4268zm-3.0656 5.685h1.3194c.5044 0 .9313-.097 1.3193-.3104.3881-.2135.6985-.5045.9119-.9119.2135-.4075.3299-.8926.3299-1.4746 0-.5821-.1164-1.0672-.3299-1.4746-.2134-.4075-.5238-.7179-.9119-.912-.388-.2134-.8343-.3104-1.3193-.3104h-1.3194s-.0389 0-.0389.0582v5.3163s.0001.0582.0389.0582z"></path>
    <path d="m21.5942 17.7345c-.3492-.194-.6209-.4657-.8149-.8343-.194-.3687-.291-.7761-.291-1.2418s.097-.8731.291-1.2224c.194-.3492.4463-.6403.7761-.8149.3299-.1746.6985-.291 1.1254-.291.4268 0 .7761.097 1.1059.291.3299.194.6015.4657.7761.7955.1941.3299.2717.7179.2717 1.1448v.2328c0 .0582-.0388.0776-.097.0776h-3.4343s-.097.0388-.097.1164c.0582.4269.2134.7761.485 1.0284.2717.2522.6209.3686 1.0478.3686.4851 0 .9119-.194 1.2612-.5626.0776-.0777.1358-.0777.1552-.0389l.3298.3493s.0388.0776 0 .1164c-.2328.2522-.5045.4269-.7955.5627s-.6209.194-.9507.194c-.4463 0-.8343-.097-1.1836-.291zm2.5224-2.5612c-.0582-.3686-.2135-.6597-.4851-.8925-.2522-.2328-.5627-.3298-.9313-.3298-.3687 0-.6791.1164-.9508.3492-.2716.2328-.4268.5239-.485.8925v.0582s.0194.0582.0776.0582h2.6776s.097-.0388.097-.1164z"></path>
    <path d="m28.0758 13.3301s.097.0388.097.097v.5045s-.0194.0776-.0776.0776-.097 0-.1358 0-.097 0-.1358 0c-.4463 0-.8149.194-1.0672.5626-.0388.0583-.0776.1553-.0776.2329v3.0074s-.0388.097-.097.097h-.5239s-.097-.0388-.097-.097v-4.3074s.0388-.097.097-.097h.4657s.097.0388.097.097v.3492s0 .0389.0194.0583h.0388c.3105-.3881.7179-.5627 1.2224-.5627h.1552z"></path>
    <path d="m32.1502 17.9081h-.5239s-.097-.0388-.097-.097v-6.5969s.0388-.097.097-.097h1.9015c.4656 0 .8731.097 1.2417.2716.3687.1941.6597.4463.8731.7955.2135.3493.3105.7567.3105 1.2224 0 .5627-.1552 1.0283-.4463 1.397-.291.3686-.6985.6209-1.2223.7761-.0776 0-.0777.0582-.0388.1164l1.688 2.0955s.0194.0388.0194.0582c0 .0388-.0194.0582-.0776.0582h-.6791s-.0776 0-.097 0-.0388-.0388-.0776-.0582l-1.6104-2.0567s-.0389-.0582-.0777-.0582-.0388 0-.097 0h-.9701s-.0388 0-.0388.0582v2.0567s-.0388.097-.097.097zm.097-6.0536v3.1044s0 .0582.0388.0582h1.1642c.5044 0 .9313-.1358 1.2611-.4074.3299-.2717.5045-.6597.5045-1.203s-.1552-.9313-.5045-1.203c-.3492-.2716-.7567-.4074-1.2611-.4074h-1.1642s-.0388 0-.0388.0582z"></path>
    <path d="m37.8149 17.7345c-.3492-.194-.6209-.4657-.8149-.8343-.194-.3687-.291-.7761-.291-1.2418s.097-.8731.291-1.2224c.194-.3492.4463-.6403.7761-.8149.3299-.1746.6985-.291 1.1254-.291.4268 0 .7761.097 1.1059.291.3299.194.6015.4657.7761.7955.1941.3299.2717.7179.2717 1.1448v.2328c0 .0582-.0388.0776-.097.0776h-3.4343s-.097.0388-.097.1164c.0582.4269.2134.7761.485 1.0284.2717.2522.6209.3686 1.0478.3686.4851 0 .9119-.194 1.2612-.5626.0776-.0777.1358-.0777.1552-.0389l.3298.3493s.0388.0776 0 .1164c-.2328.2522-.5045.4269-.7955.5627s-.6209.194-.9507.194c-.4463 0-.8343-.097-1.1836-.291zm2.5224-2.5612c-.0582-.3686-.2135-.6597-.4851-.8925-.2522-.2328-.5627-.3298-.9313-.3298-.3687 0-.6791.1164-.9508.3492-.2716.2328-.4268.5239-.485.8925v.0582s.0194.0582.0776.0582h2.6776s.097-.0388.097-.1164z"></path>
    <path d="m43.0742 19.713c-.2911-.1358-.5433-.3104-.7567-.5432-.0388-.0583-.0388-.0971 0-.1359l.3298-.3686s.0388-.0388.0777-.0388c.0388 0 .0388 0 .0582.0388.3298.388.7566.5821 1.3193.5821.4657 0 .8149-.1164 1.0672-.3105.2522-.2134.388-.5238.388-.9507v-.6791s0-.0388-.0388-.0582c-.0194 0-.0388 0-.0776.0194-.3492.3492-.8149.5045-1.397.5045-.4074 0-.7567-.097-1.1059-.2911-.3299-.194-.5821-.4462-.7761-.7955-.1941-.3492-.2717-.7373-.2717-1.1835 0-.4463.0971-.8344.2911-1.1642s.4656-.6015.7955-.7955c.3298-.194.6985-.291 1.1059-.291.6015 0 1.0672.1746 1.4164.5432.0194.0194.0388.0388.0582.0388 0 0 .0194-.0194.0194-.0582v-.3298s0-.0582.0388-.0582.0388-.0194.0777-.0194h.4656s.097.0388.097.097v4.5402c0 .5821-.194 1.0477-.6015 1.3776-.388.3298-.9119.4851-1.5522.4851-.388 0-.7179-.0583-1.0089-.1941zm1.9014-2.7357c.2329-.1165.4075-.2911.5239-.5045.0388-.0582.0388-.1164.0388-.1746v-1.5134s0-.1359-.0388-.1747c-.1358-.2134-.3104-.3686-.5239-.5044-.2134-.1358-.485-.1941-.7761-.1941-.4656 0-.8343.1553-1.1253.4463-.2911.291-.4269.6791-.4269 1.1642 0 .485.1358.8731.4269 1.1641.291.2911.6597.4463 1.1253.4463.2911 0 .5627-.0582.7761-.194z"></path>
    <path d="m47.7119 12.205c-.097-.1164-.1553-.2328-.1553-.3686s.0583-.2717.1553-.3687.2328-.1552.3686-.1552.2522.0582.3493.1552c.097.097.1552.2329.1552.3687s-.0582.2716-.1552.3686c-.0971.1164-.2135.1552-.3493.1552s-.2716-.0582-.3686-.1552zm0 5.6074v-4.3074s.0388-.097.097-.097h.5239s.097.0388.097.097v4.3074s-.0388.097-.097.097h-.5239s-.097-.0388-.097-.097z"></path>
    <path d="m50.6802 17.7345c-.3493-.194-.6209-.4657-.815-.8343-.194-.3687-.291-.7761-.291-1.2418s.097-.8731.291-1.2224c.1941-.3492.4463-.6403.7761-.8149.3299-.1746.6985-.291 1.1254-.291s.7761.097 1.106.291c.3298.194.6014.4657.7761.7955.194.3299.2716.7179.2716 1.1448v.2328c0 .0582-.0388.0776-.097.0776h-3.4343s-.097.0388-.097.1164c.0582.4269.2134.7761.4851 1.0284.2716.2522.6208.3686 1.0477.3686.4851 0 .9119-.194 1.2612-.5626.0776-.0777.1358-.0777.1552-.0389l.3299.3493s.0388.0776 0 .1164c-.2329.2522-.5045.4269-.7956.5627-.291.1358-.6209.194-.9507.194-.4463 0-.8343-.097-1.1836-.291zm2.5029-2.5612c-.0582-.3686-.2134-.6597-.4851-.8925-.2522-.2328-.5627-.3298-.9313-.3298-.3687 0-.6791.1164-.9507.3492-.2717.2328-.4269.5239-.4851.8925v.0582s.0194.0582.0776.0582h2.6776s.097-.0388.097-.1164z"></path>
    <path d="m57.1598 13.3301s.097.0388.097.097v.5045s-.0194.0776-.0776.0776-.097 0-.1358 0-.097 0-.1358 0c-.4463 0-.8149.194-1.0672.5626-.0388.0583-.0776.1553-.0776.2329v3.0074s-.0388.097-.097.097h-.5239s-.097-.0388-.097-.097v-4.3074s.0388-.097.097-.097h.4657s.097.0388.097.097v.3492s0 .0389.0194.0583h.0388c.3105-.3881.7179-.5627 1.2224-.5627h.1552z"></path>
    <path d="m58.7505 17.7345c-.3493-.194-.6209-.4657-.8149-.8343-.194-.3687-.2911-.7761-.2911-1.2418s.0971-.8731.2911-1.2224c.194-.3492.4462-.6403.7761-.8149.3298-.1746.6985-.291 1.1253-.291.4269 0 .7762.097 1.106.291s.6015.4657.7761.7955c.194.3299.2716.7179.2716 1.1448v.2328c0 .0582-.0388.0776-.097.0776h-3.4342s-.0971.0388-.0971.1164c.0583.4269.2135.7761.4851 1.0284.2717.2522.6209.3686 1.0477.3686.4851 0 .912-.194 1.2612-.5626.0776-.0777.1358-.0777.1552-.0389l.3299.3493s.0388.0776 0 .1164c-.2328.2522-.5045.4269-.7955.5627-.2911.1358-.6209.194-.9508.194-.4462 0-.8343-.097-1.1835-.291zm2.5223-2.5612c-.0582-.3686-.2328-.6597-.485-.8925-.2523-.2328-.5627-.3298-.9314-.3298-.3686 0-.679.1164-.9507.3492-.2716.2328-.4268.5239-.485.8925v.0582s.0193.0582.0776.0582h2.6775s.097-.0388.097-.1164z"></path>
    <path d="m63.7576 17.9091h-.5239s-.097-.0388-.097-.097v-4.3074s.0388-.097.097-.097h.4657s.097.0388.097.097v.3298s0 .0389.0194.0583c0 0 .0388 0 .0582-.0194.1552-.1747.3299-.3105.5239-.4075s.4075-.1358.6597-.1358c.4851 0 .8537.1358 1.1253.4268.2717.2717.3881.6403.3881 1.0672v3.0268s-.0388.097-.097.097h-.5239s-.097-.0388-.097-.097v-2.891c0-.3104-.0776-.5627-.2328-.7179-.1553-.1552-.3881-.2522-.6985-.2522-.2135 0-.4075.0582-.5821.1552s-.3299.2716-.4463.4657c-.0388.0582-.0388.1358-.0388.194v3.0268s-.0388.097-.097.097z"></path>
    <path d="m71.4594 10.8846h.5239s.097.0388.097.0971v6.8297s-.0388.097-.097.097h-.4657s-.097-.0388-.097-.097v-.3299s0-.0582-.0194-.0582c0 0-.0388 0-.0582.0388-.3298.3687-.8149.5433-1.4358.5433-.4074 0-.7955-.097-1.1253-.291-.3299-.1941-.6015-.4657-.7956-.8343-.194-.3687-.291-.7568-.291-1.2224 0-.4657.097-.8731.291-1.2224.1941-.3492.4657-.6403.7956-.8343.3298-.194.7179-.291 1.1253-.291.5821 0 1.0478.1746 1.397.5044.0194.0194.0388.0388.0582.0194 0 0 .0194-.0194.0194-.0582v-2.8134s.0388-.097.097-.097zm-.6791 6.2865c.2329-.1358.4075-.3105.5433-.5239.0194-.0582.0388-.097.0388-.1552v-1.6686s0-.097-.0388-.1552c-.1358-.2135-.3104-.3881-.5433-.5239-.2328-.1358-.5045-.194-.7955-.194-.4851 0-.8731.1552-1.1641.4656-.2911.3105-.4463.7179-.4463 1.2418s.1552.9313.4463 1.2418c.291.3104.679.4656 1.1641.4656.291 0 .5627-.0582.7955-.194z"></path>
    <path d="m74.2348 17.7345c-.3492-.194-.6208-.4657-.8149-.8343-.194-.3687-.291-.7761-.291-1.2418s.097-.8731.291-1.2224c.1941-.3492.4463-.6403.7762-.8149.3298-.1746.6984-.291 1.1253-.291.4268 0 .7761.097 1.1059.291.3299.194.6015.4657.7761.7955.1941.3299.2717.7179.2717 1.1448v.2328c0 .0582-.0388.0776-.097.0776h-3.4343s-.097.0388-.097.1164c.0582.4269.2134.7761.4851 1.0284.2716.2522.6208.3686 1.0477.3686.4851 0 .9119-.194 1.2612-.5626.0776-.0777.1358-.0777.1552-.0389l.3298.3493s.0388.0776 0 .1164c-.2328.2522-.5044.4269-.7955.5627-.291.1358-.6209.194-.9507.194-.4463 0-.8343-.097-1.1835-.291zm2.503-2.5612c-.0582-.3686-.2328-.6597-.4851-.8925-.2522-.2328-.5627-.3298-.9313-.3298-.3687 0-.6791.1164-.9507.3492-.2717.2328-.4269.5239-.4851.8925v.0582s.0194.0582.0776.0582h2.6776s.097-.0388.097-.1164z"></path>
    <path d="m84.4016 11.3501c.291.1553.5238.3687.679.6403.1553.2717.2329.5821.2329.912 0 .3104-.0776.6014-.2134.8537-.1553.2522-.3493.4462-.6015.6015-.0582.0388-.0582.0776 0 .1164.291.1552.5238.3686.6985.6403.1746.2716.2716.6014.2716.9507 0 .5433-.1746.9895-.5433 1.3388-.3686.3492-.8731.5238-1.5328.5238h-1.9596s-.0971-.0388-.0971-.097v-6.5969s.0388-.097.0971-.097h1.9402c.4075 0 .7567.0776 1.0477.2329zm-2.3672.5045v2.1925s0 .0582.0388.0582h1.1836c.4269 0 .7373-.097.9507-.291s.3299-.4851.3299-.8537c0-.3687-.1165-.6403-.3299-.8537-.2134-.1941-.5432-.3105-.9507-.3105h-1.1836s-.0388 0-.0388.0582zm0 2.988v2.3283s0 .0582.0388.0582h1.2224c.4657 0 .8149-.1164 1.0478-.3298.2328-.2134.3492-.5045.3492-.8925 0-.3881-.1164-.6791-.3492-.8925-.2329-.2135-.5821-.3299-1.0478-.3299h-1.2224s-.0388 0-.0388.0388z"></path>
    <path d="m89.4659 13.408h.5238s.097.0388.097.097v4.3074s-.0388.097-.097.097h-.4656s-.0971-.0388-.0971-.097v-.3299s.0001-.0388-.0193-.0582c0 0-.0388 0-.0583.0194-.3104.3493-.6984.5433-1.1835.5433s-.8537-.1358-1.106-.4269c-.2716-.2716-.388-.6402-.388-1.0671v-3.0268s.0388-.097.097-.097h.5239s.097.0388.097.097v2.891c0 .3104.0776.5627.2328.7179s.3881.2522.6985.2522c.2134 0 .4074-.0582.5821-.1552.1746-.097.3298-.2716.4462-.4657.0389-.0582.0388-.1358.0388-.194v-3.0268s.0388-.097.0971-.097zm-2.4254-1.203c-.097-.1164-.1552-.2328-.1552-.3686s.0582-.2717.1552-.3687.2329-.1552.3687-.1552.2716.0582.3686.1552c.0971.097.1552.2329.1552.3687s-.0581.2716-.1552.3686c-.097.1164-.2328.1552-.3686.1552s-.2717-.0582-.3687-.1552zm1.9209 0c-.097-.1164-.1552-.2328-.1552-.3686s.0582-.2717.1552-.3687.2328-.1552.3686-.1552.2717.0582.3687.1552.1552.2329.1552.3687-.0582.2716-.1552.3686c-.097.1164-.2329.1552-.3687.1552s-.2716-.0582-.3686-.1552z"></path>
    <path d="m93.6364 13.3301s.097.0388.097.097v.5045s-.0194.0776-.0776.0776-.097 0-.1358 0c-.0389 0-.097 0-.1358 0-.4463 0-.815.194-1.0672.5626-.0388.0583-.0776.1553-.0776.2329v3.0074s-.0388.097-.097.097h-.5239s-.097-.0388-.097-.097v-4.3074s.0388-.097.097-.097h.4656s.0971.0388.0971.097v.3492s0 .0389.0194.0583.0388 0 .0388 0c.3104-.3881.7179-.5627 1.2223-.5627h.1553z"></path>
    <path d="m95.3632 19.713c-.291-.1358-.5432-.3104-.7567-.5432-.0388-.0583-.0388-.0971 0-.1359l.3299-.3686s.0388-.0388.0776-.0388.0388 0 .0582.0388c.3299.388.7567.5821 1.3194.5821.4656 0 .8149-.1164 1.0671-.3105.2523-.2134.3881-.5238.3881-.9507v-.6791s0-.0388-.0388-.0582c-.0194 0-.0388 0-.0776.0194-.3493.3492-.8149.5045-1.397.5045-.4075 0-.7567-.097-1.106-.2911-.3298-.194-.5821-.4462-.7761-.7955-.194-.3492-.2716-.7373-.2716-1.1835 0-.4463.097-.8344.291-1.1642.1941-.3298.4657-.6015.7955-.7955.3299-.194.6985-.291 1.106-.291.6015 0 1.0671.1746 1.4164.5432.0194.0194.0388.0388.0582.0388 0 0 .0194-.0194.0194-.0582v-.3298s0-.0582.0388-.0582.0388-.0194.0776-.0194h.4657s.097.0388.097.097v4.5402c0 .5821-.194 1.0477-.6015 1.3776-.388.3298-.9119.4851-1.5522.4851-.3881 0-.7179-.0583-1.0089-.1941zm1.8821-2.7357c.2328-.1165.4075-.2911.5239-.5045.0388-.0582.0388-.1164.0388-.1746v-1.5134s0-.1359-.0388-.1747c-.1358-.2134-.3105-.3686-.5239-.5044s-.485-.1941-.7761-.1941c-.4656 0-.8343.1553-1.1253.4463-.2911.291-.4269.6791-.4269 1.1642 0 .485.1358.8731.4269 1.1641.291.2911.6597.4463 1.1253.4463.2911 0 .5627-.0582.7761-.194z"></path>
    <path d="m100.778 17.7345c-.349-.194-.621-.4657-.8151-.8343-.194-.3687-.291-.7761-.291-1.2418s.097-.8731.291-1.2224c.1941-.3492.4461-.6403.7761-.8149s.699-.291 1.125-.291c.427 0 .776.097 1.106.291s.602.4657.776.7955c.194.3299.272.7179.272 1.1448v.2328c0 .0582-.039.0776-.097.0776h-3.434s-.097.0388-.097.1164c.058.4269.213.7761.485 1.0284.271.2522.621.3686 1.048.3686.485 0 .911-.194 1.261-.5626.077-.0777.136-.0777.155-.0389l.33.3493s.039.0776 0 .1164c-.233.2522-.505.4269-.796.5627s-.621.194-.95.194c-.447 0-.835-.097-1.184-.291zm2.503-2.5612c-.058-.3686-.233-.6597-.485-.8925-.253-.2328-.563-.3298-.932-.3298-.368 0-.679.1164-.95.3492-.272.2328-.427.5239-.485.8925v.0582s.019.0582.077.0582h2.678s.097-.0388.097-.1164z"></path>
    <path d="m107.257 13.3301s.097.0388.097.097v.5045s-.019.0776-.077.0776-.097 0-.136 0-.097 0-.136 0c-.446 0-.815.194-1.067.5626-.039.0583-.078.1553-.078.2329v3.0074s-.038.097-.097.097h-.523s-.097-.0388-.097-.097v-4.3074s.038-.097.097-.097h.465s.097.0388.097.097v.3492s0 .0389.02.0583c.019.0194.038 0 .038 0 .311-.3881.718-.5627 1.223-.5627h.155z"></path>
    <path d="m108.849 17.9091h-.523s-.097-.0388-.097-.097v-4.3074s.038-.097.097-.097h.465s.097.0388.097.097v.3298s0 .0389.02.0583c0 0 .038 0 .058-.0194.31-.3493.698-.5433 1.183-.5433.311 0 .582.0582.796.194.213.1164.407.291.524.5045.019.0388.058.0388.097 0 .174-.2135.368-.3881.582-.5045.194-.1164.446-.1746.737-.1746.485 0 .854.1358 1.106.4268.272.2717.388.6403.388 1.0672v3.0268s-.039.097-.097.097h-.524s-.097-.0388-.097-.097v-2.891c0-.3104-.077-.5627-.252-.7179s-.407-.2522-.698-.2522c-.427 0-.757.2134-1.009.6209-.039.0582-.059.1358-.059.2328v3.0268s-.038.097-.097.097h-.524s-.097-.0388-.097-.097v-2.891c0-.3104-.077-.5627-.232-.7179-.156-.1552-.388-.2522-.699-.2522-.213 0-.407.0582-.582.1552s-.33.2716-.446.4657c-.039.0582-.039.1358-.039.2134v3.0268s-.039.097-.097.097z"></path>
    <path d="m116.59 17.7345c-.349-.194-.621-.4657-.815-.8343-.194-.3687-.291-.7761-.291-1.2418s.097-.8731.291-1.2224c.194-.3492.447-.6403.776-.8149.33-.1746.699-.291 1.126-.291s.776.097 1.106.291.601.4657.776.7955c.194.3299.272.7179.272 1.1448v.2328c0 .0582-.039.0776-.097.0776h-3.435s-.097.0388-.097.1164c.058.4269.214.7761.485 1.0284.272.2522.621.3686 1.048.3686.485 0 .912-.194 1.261-.5626.078-.0777.136-.0777.155-.0389l.33.3493s.039.0776 0 .1164c-.233.2522-.504.4269-.795.5627s-.621.194-.951.194c-.446 0-.834-.097-1.184-.291zm2.503-2.5612c-.058-.3686-.233-.6597-.485-.8925s-.562-.3298-.931-.3298-.679.1164-.951.3492c-.271.2328-.427.5239-.485.8925v.0582s.019.0582.078.0582h2.677s.097-.0388.097-.1164z"></path>
    <path d="m120.956 12.205c-.097-.1164-.155-.2328-.155-.3686s.058-.2717.155-.3687.233-.1552.369-.1552c.135 0 .252.0582.349.1552s.155.2329.155.3687-.058.2716-.155.3686c-.097.1164-.214.1552-.349.1552-.136 0-.272-.0582-.369-.1552zm0 5.6074v-4.3074s.039-.097.097-.097h.524s.097.0388.097.097v4.3074s-.039.097-.097.097h-.524s-.097-.0388-.097-.097z"></path>
    <path d="m123.381 17.7345c-.271-.194-.446-.4463-.543-.7761v-.0388s0-.0582.058-.0776l.466-.1553h.039s.058 0 .097.0582c.058.2135.174.3687.329.4851.156.1164.35.1746.524.1746.272 0 .485-.0582.621-.194s.214-.3104.214-.5045c0-.194-.078-.3686-.214-.485s-.33-.1941-.582-.2329l-.388-.0776c-.33-.0582-.582-.2134-.776-.4462-.194-.2329-.291-.5045-.291-.8343 0-.2329.058-.4657.194-.6597.116-.1941.291-.3493.524-.4657.213-.1164.465-.1746.756-.1746.35 0 .66.097.912.2716.253.194.427.4463.524.7955v.0388s0 .0582-.077.0776l-.447.1165h-.038s-.059 0-.078-.0583c-.058-.194-.136-.3492-.272-.4656-.135-.1164-.31-.1552-.504-.1552-.233 0-.408.0582-.543.194-.136.1164-.214.2716-.214.4657 0 .194.058.3492.155.4462.117.097.272.1746.505.2328l.388.0777c.369.0776.66.2134.873.4462s.33.5433.33.9119c0 .3687-.136.6985-.408.9508-.271.2522-.64.3686-1.125.3686-.388 0-.698-.097-.97-.291z"></path>
    <path d="m127.3 11.6602.524-.2911h.038c.039 0 .078.0194.078.0777v1.9208s0 .0582.039.0582h.524s.097.0388.097.097v.4269s-.039.097-.097.097h-.524s-.039 0-.039.0582v3.7447s-.039.097-.097.097h-.524s-.097-.0388-.097-.097v-3.7447s0-.0582-.039-.0582h-.523s-.098-.0388-.098-.097v-.4269s.039-.097.098-.097h.523s.039 0 .039-.0582v-1.591s.02-.097.078-.1164z"></path>
    <path d="m130.366 17.7345c-.35-.194-.621-.4657-.815-.8343-.194-.3687-.291-.7761-.291-1.2418s.097-.8731.291-1.2224c.194-.3492.446-.6403.776-.8149s.698-.291 1.125-.291.776.097 1.106.291.602.4657.776.7955c.194.3299.272.7179.272 1.1448v.2328c0 .0582-.039.0776-.097.0776h-3.434s-.097.0388-.097.1164c.058.4269.213.7761.485 1.0284.271.2522.621.3686 1.047.3686.486 0 .912-.194 1.262-.5626.077-.0777.135-.0777.155-.0389l.33.3493s.039.0776 0 .1164c-.233.2522-.505.4269-.796.5627s-.621.194-.951.194c-.446 0-.834-.097-1.183-.291zm2.503-2.5612c-.059-.3686-.233-.6597-.485-.8925-.253-.2328-.563-.3298-.932-.3298-.368 0-.679.1164-.95.3492-.272.2328-.427.5239-.486.8925v.0582s.02.0582.078.0582h2.678s.097-.0388.097-.1164z"></path>
    <path d="m136.847 13.3301s.097.0388.097.097v.5045s-.019.0776-.077.0776c-.059 0-.097 0-.136 0s-.097 0-.136 0c-.446 0-.815.194-1.067.5626-.039.0583-.078.1553-.078.2329v3.0074s-.039.097-.097.097h-.524s-.097-.0388-.097-.097v-4.3074s.039-.097.097-.097h.466s.097.0388.097.097v.3492s0 .0389.019.0583c.02.0194.039 0 .039 0 .311-.3881.718-.5627 1.223-.5627h.155z"></path>
    <path d="m16.7246 25.9609h.5433s.097.0388.0776.1165l-1.4164 4.3073s-.0582.0776-.1358.0776h-.7567s-.097-.0194-.1358-.0776l-1.4164-4.3073v-.0389s.0194-.0582.0776-.0582h.5433s.097.0194.1164.0777l1.1641 3.5894s0 .0194.0388.0194c0 0 .0194 0 .0389-.0194l1.1641-3.5894s.0582-.0777.1164-.0777z"></path>
    <path d="m19.0532 30.2483c-.3492-.2135-.6209-.5045-.8149-.8537-.194-.3493-.291-.7567-.291-1.1836s.097-.8149.291-1.1836c.194-.3686.4657-.6402.8149-.8537.3492-.2134.7373-.3104 1.1642-.3104.4268 0 .8149.097 1.1641.3104.3493.2135.6209.5045.8149.8537.1941.3493.2911.7567.2911 1.1836s-.097.8149-.2911 1.1836c-.194.3686-.4656.6402-.8149.8537-.3492.2134-.7373.3104-1.1641.3104-.4269 0-.815-.097-1.1642-.3104zm1.9597-.5627c.2328-.1552.4268-.3492.5626-.6209.1359-.2522.1941-.5433.1941-.8537s-.0582-.6015-.1941-.8537c-.1358-.2522-.3104-.4657-.5626-.6209-.2328-.1552-.5045-.2328-.7955-.2328-.2911 0-.5627.0776-.7955.2328-.2329.1552-.4269.3492-.5627.6209-.1358.2522-.194.5433-.194.8537s.0582.6015.194.8537.3104.4657.5627.6209c.2522.1552.5044.2328.7955.2328.291 0 .5627-.0776.7955-.2328z"></path>
    <path d="m24.2537 30.4618h-.5239s-.097-.0388-.097-.097v-4.3074s.0388-.097.097-.097h.4657s.097.0388.097.097v.3299s0 .0388.0194.0582c0 0 .0388 0 .0582-.0194.1552-.1746.3299-.3105.5239-.4075s.4074-.1358.6597-.1358c.485 0 .8537.1358 1.1253.4269.2717.2716.3881.6403.3881 1.0671v3.0268s-.0388.097-.097.097h-.5239s-.097-.0388-.097-.097v-2.891c0-.3104-.0776-.5626-.2329-.7179-.1552-.1552-.388-.2522-.6984-.2522-.2135 0-.4075.0582-.5821.1552s-.3299.2717-.4463.4657c-.0388.0582-.0388.1358-.0388.194v3.0268s-.0388.097-.097.097z"></path>
    <path d="m34.2844 23.9048c.291.1553.5239.3687.6791.6403.1552.2717.2328.5821.2328.9119 0 .3105-.0776.6015-.2134.8538-.1553.2522-.3493.4462-.6015.6014-.0582.0388-.0582.0777 0 .1165.291.1552.5239.3686.6985.6402.1746.2717.2716.6015.2716.9508 0 .5432-.1746.9895-.5433 1.3388-.3686.3492-.8731.5238-1.5328.5238h-1.9596s-.097-.0388-.097-.097v-6.5969s.0388-.097.097-.097h1.9402c.4075 0 .7567.0776 1.0478.2328zm-2.3672.5045v2.1925s.0001.0582.0389.0582h1.1835c.4269 0 .7373-.097.9507-.291.2135-.1941.3299-.4851.3299-.8537 0-.3687-.1164-.6403-.3299-.8538-.2134-.194-.5432-.3104-.9507-.3104h-1.1835s-.0389 0-.0389.0582zm0 2.988v2.3283s.0001.0582.0389.0582h1.2223c.4657 0 .8149-.1164 1.0478-.3298.2328-.2134.3492-.5045.3492-.8925 0-.3881-.1164-.6791-.3492-.8926-.2329-.2134-.5821-.3298-1.0478-.3298h-1.2223s-.0389 0-.0389.0388z"></path>
    <path d="m37.4282 30.2872c-.3492-.194-.6209-.4657-.8149-.8343-.194-.3687-.291-.7761-.291-1.2418 0-.4656.097-.8731.291-1.2223.194-.3493.4463-.6403.7761-.8149.3299-.1747.6985-.2911 1.1253-.2911.4269 0 .7762.097 1.106.2911.3299.194.6015.4656.7761.7955.194.3298.2716.7179.2716 1.1447v.2328c0 .0583-.0387.0777-.097.0777h-3.4342s-.097.0388-.097.1164c.0582.4268.2134.7761.485 1.0283.2717.2522.6209.3687 1.0478.3687.485 0 .9119-.1941 1.2611-.5627.0776-.0776.1359-.0776.1553-.0388l.3298.3492s.0388.0776 0 .1164c-.2328.2523-.5045.4269-.7955.5627-.2911.1358-.6209.194-.9507.194-.4463 0-.8343-.097-1.1836-.291zm2.5223-2.5611c-.0582-.3687-.2328-.6597-.485-.8926-.2523-.2328-.5627-.3298-.9313-.3298-.3687 0-.6791.1164-.9508.3492-.2716.2329-.4268.5239-.485.8926v.0582s.0194.0582.0776.0582h2.6775s.097-.0388.097-.1164z"></path>
    <path d="m43.9079 25.8828s.097.0388.097.097v.5045s-.0194.0776-.0776.0776-.0971 0-.1359 0-.097 0-.1358 0c-.4462 0-.8149.194-1.0671.5627-.0388.0582-.0776.1552-.0776.2328v3.0074s-.0388.097-.097.097h-.5239s-.097-.0388-.097-.097v-4.3074s.0388-.097.097-.097h.4657s.097.0388.097.097v.3493s0 .0388.0194.0582.0388 0 .0388 0c.3104-.3881.7179-.5627 1.2223-.5627h.1553z"></path>
    <path d="m46.1013 29.9781v.4269s-.0389.097-.0971.097h-.1746c-.3104 0-.5433-.0776-.6985-.2134-.1746-.1552-.2522-.3687-.2522-.6791v-6.073s.0388-.097.097-.097h.5239s.097.0388.097.097v5.976c0 .2328.097.3492.291.3492h.1359s.097.0388.097.097z"></path>
    <path d="m47.206 24.7578c-.097-.1165-.1552-.2329-.1552-.3687s.0582-.2716.1552-.3686c.097-.0971.2328-.1553.3687-.1553.1358 0 .2522.0582.3492.1553.097.097.1552.2328.1552.3686s-.0582.2716-.1552.3687c-.097.1164-.2134.1552-.3492.1552-.1359 0-.2717-.0582-.3687-.1552zm0 5.6073v-4.3074s.0388-.097.097-.097h.5239s.097.0388.097.097v4.3074s-.0388.097-.097.097h-.5239s-.097-.0388-.097-.097z"></path>
    <path d="m49.9998 30.4618h-.5239s-.097-.0388-.097-.097v-4.3074s.0388-.097.097-.097h.4657s.097.0388.097.097v.3299s0 .0388.0194.0582c0 0 .0388 0 .0582-.0194.1552-.1746.3298-.3105.5239-.4075.194-.097.4074-.1358.6597-.1358.485 0 .8537.1358 1.1253.4269.2717.2716.3881.6403.3881 1.0671v3.0268s-.0388.097-.097.097h-.5239s-.097-.0388-.097-.097v-2.891c0-.3104-.0776-.5626-.2329-.7179-.1552-.1552-.388-.2522-.6985-.2522-.2134 0-.4074.0582-.582.1552-.1747.097-.3299.2717-.4463.4657-.0388.0582-.0388.1358-.0388.194v3.0268s-.0388.097-.097.097z"></path>
    <path d="m14.4749 42.7837c-.388-.2716-.6791-.6402-.8343-1.1253v-.0388s0-.0776.0582-.0776l.5045-.2134h.0388s.0388 0 .0388.0194c0 0 .0194.0194.0388.0582.097.3492.2911.6208.5627.8149.2716.194.5821.291.9507.291.4657 0 .8149-.1164 1.0672-.3492.2522-.2329.3686-.5433.3686-.8926 0-.3492-.1164-.6596-.3298-.8925-.2135-.2134-.5239-.3686-.912-.4462l-.5044-.097c-.5239-.0971-.9314-.3105-1.2224-.6209-.291-.3299-.4462-.7373-.4462-1.2418 0-.3492.097-.6597.2716-.9507.1746-.2911.4074-.5239.7179-.6791.3104-.1746.6597-.2523 1.0477-.2523.4851 0 .9119.1165 1.2612.3687.3492.2522.6209.5821.7761 1.0283v.0388c0 .0388-.0194.0776-.0776.0776l-.5045.2135h-.0388s-.0388 0-.0388-.0194c0 0-.0194-.0194-.0388-.0582-.1164-.3105-.291-.5433-.5433-.7179-.2328-.1747-.5044-.2717-.8149-.2717-.388 0-.6985.1164-.9313.3299-.2328.2134-.3492.5044-.3492.8343 0 .3104.097.5627.2716.7567s.4463.3298.8149.4074l.5045.0971c.5432.1164.9895.3298 1.3194.6597.3492.3298.5238.7761.5238 1.3387 0 .3687-.097.7179-.2716 1.0284-.1746.3104-.4269.5432-.7567.7179-.3299.1746-.7179.2716-1.1642.2716-.5044 0-.9701-.1358-1.3582-.4075z"></path>
    <path d="m20.063 42.8416c-.3493-.194-.6209-.4656-.8149-.8343-.1941-.3686-.2911-.7761-.2911-1.2417 0-.4657.097-.8732.2911-1.2418.194-.3687.4462-.6209.7761-.8343.3298-.2135.6985-.2911 1.1253-.2911.4269 0 .7761.097 1.106.2911.3298.194.6014.4656.7761.7955.194.3492.2716.7179.2716 1.1447v.2135c0 .0582-.0388.0776-.097.0776h-3.4343s-.097.0388-.097.1358c.0582.4269.2134.7567.4851 1.0283.2716.2523.6209.3687 1.0477.3687.4851 0 .912-.194 1.2612-.5627.0776-.0776.1358-.0776.1552-.0388l.3299.3493s.0388.0776 0 .1358c-.2329.2522-.5045.4268-.7955.5626-.2911.1359-.6209.1941-.9508.1941-.4462 0-.8343-.097-1.1835-.2911zm2.5029-2.5611c-.0582-.3687-.2328-.6597-.485-.8925-.2523-.2329-.5627-.3299-.9314-.3299-.3686 0-.6791.1164-.9507.3493-.2716.2328-.4269.5238-.4851.8925v.0582s.0194.0582.0776.0582h2.6776s.097-.0388.097-.1164z"></path>
    <path d="m25.0486 43.0165h-.5238s-.0971-.0388-.0971-.097v-4.3074s.0388-.097.0971-.097h.4656s.097.0388.097.097v.3299s0 .0388.0194.0582c0 0 .0388 0 .0582-.0194.1553-.1746.3299-.3105.5239-.4075s.4075-.1358.6597-.1358c.4851 0 .8537.1358 1.1254.4075.2716.2716.388.6402.388 1.0671v3.0268s-.0388.097-.097.097h-.5239s-.097-.0388-.097-.097v-2.9104c0-.3104-.0776-.5627-.2328-.7179-.1553-.1552-.3881-.2522-.6985-.2522-.2135 0-.4075.0582-.5821.1552s-.3298.2716-.4463.4851c-.0388.0582-.0388.1358-.0388.2134v3.0268s-.0388.097-.097.097z"></path>
    <path d="m30.0553 42.8204c-.3298-.194-.6015-.4656-.7955-.8343-.194-.3686-.291-.7567-.291-1.2224 0-.4656.097-.8731.291-1.2223.194-.3493.4657-.6403.7955-.8343.3299-.1941.7179-.2911 1.1253-.2911.6403 0 1.1254.194 1.4747.6015h.0388s.0194-.0194.0194-.0388v-.3687s.0388-.097.097-.097h.4656s.0971.0388.0971.097v4.3074s-.0389.097-.0971.097h-.4656s-.097-.0388-.097-.097v-.3686s0-.0388-.0194-.0388c0 0-.0194 0-.0388 0-.4075.4074-.8926.6015-1.4747.6015-.4074 0-.7954-.0971-1.1253-.2911zm2.0373-.5433c.2328-.1358.4074-.3104.5239-.5238.0194-.0582.0388-.1164.0388-.1747v-1.6298s0-.1164-.0388-.1746c-.1165-.2134-.3105-.3881-.5433-.5239s-.5045-.194-.7955-.194c-.4851 0-.8731.1552-1.1642.4657-.291.3104-.4463.7179-.4463 1.2417 0 .5239.1553.9314.4463 1.2418.2911.3104.6791.4657 1.1642.4657.3104 0 .582-.0582.8149-.1941z"></path>
    <path d="m35.1377 36.7677.5239-.2716h.0388c.0388 0 .0776.0194.0776.0776v1.9209s0 .0582.0388.0582h.5239s.097.0388.097.097v.4074s-.0388.0971-.097.0971h-.5239s-.0388 0-.0388.0582v3.7447s-.0388.097-.097.097h-.5239s-.097-.0388-.097-.097v-3.7447s0-.0582-.0388-.0582h-.5239s-.097-.0389-.097-.0971v-.4074s.0388-.097.097-.097h.5239s.0388 0 .0388-.0582v-1.591s.0194-.0971.0776-.1165z"></path>
    <path d="m37.68 42.8401c-.2716-.1941-.4463-.4463-.5433-.7761v-.0388s0-.0582.0582-.0776l.4657-.1553h.0388s.0776 0 .097.0776c.0582.2135.1746.3687.3298.4851.1553.1164.3493.1746.5239.1746.2717 0 .4851-.0582.6209-.194s.2134-.3104.2134-.5045c0-.194-.0776-.3686-.2134-.485s-.3298-.1941-.5821-.2329l-.388-.0776c-.3299-.0582-.5821-.2134-.7761-.4462-.1941-.2329-.2911-.5045-.2911-.8343 0-.2329.0582-.4657.194-.6597.1165-.1941.2911-.3493.5239-.4657.2135-.1164.4657-.1746.7567-.1746.3493 0 .6597.097.912.2716.2522.194.4268.4463.5238.7955v.0388s0 .0776-.0776.0776l-.4462.1165h-.0389s-.0582 0-.0776-.0777c-.0582-.194-.1358-.3492-.2716-.4656s-.3105-.1552-.5045-.1552c-.2328 0-.4074.0582-.5433.194-.1358.1164-.2134.2716-.2134.4656 0 .1941.0582.3493.1552.4463.0971.097.2717.1746.5045.2134l.3881.0777c.3686.0776.6597.2134.8731.4462s.3298.5433.3298.9119c0 .3687-.1358.6985-.4074.9508-.2716.2522-.6403.3686-1.1254.3686-.388 0-.6985-.097-.9701-.291z"></path>
    <path d="m43.7922 42.9385-1.1641-1.9403s-.0388-.0582-.0582-.0582-.0388 0-.0582.0388l-.4075.4851s-.0582.1164-.0582.1746v1.3s0 .0582-.0388.0776-.0388.0194-.0776.0194h-.5045s-.097-.0388-.097-.097v-6.8298s.0388-.097.097-.097h.5045s.0582 0 .0776.0194.0388.0388.0388.0776v4.288s0 .0582.0388.0582.0388 0 .0776-.0388l1.5134-1.8238s.0776-.0582.1164-.0582h.6791s.0582 0 .0776.0388.0001.0582-.0194.0776l-1.3581 1.6298s-.0388.0582-.0388.0776 0 .0582.0194.0776l1.4746 2.4642s.0194.0388.0194.0582c0 .0388-.0389.0582-.0971.0582h-.582s-.1164-.0194-.1552-.0776z"></path>
    <path d="m46.2174 42.8204c-.3298-.194-.6015-.4656-.7955-.8343-.194-.3686-.291-.7567-.291-1.2224 0-.4656.097-.8731.291-1.2223.194-.3493.4657-.6403.7955-.8343.3298-.1941.7179-.2911 1.1254-.2911.6402 0 1.1253.194 1.4746.6015h.0388s.0194-.0194.0194-.0388v-.3687s.0388-.097.097-.097h.4656s.0971.0388.0971.097v4.3074s-.0388.097-.0971.097h-.4656s-.097-.0388-.097-.097v-.3686s0-.0388-.0194-.0388c0 0-.0194 0-.0388 0-.4075.4074-.8926.6015-1.4746.6015-.4075 0-.7956-.0971-1.1254-.2911zm2.0567-.5433c.2328-.1358.4074-.3104.5239-.5238.0194-.0582.0388-.1164.0388-.1747v-1.6298s0-.1164-.0388-.1746c-.1165-.2134-.3105-.3881-.5433-.5239s-.5045-.194-.7955-.194c-.4851 0-.8731.1552-1.1642.4657-.291.3104-.4462.7179-.4462 1.2417 0 .5239.1552.9314.4462 1.2418.2911.3104.6791.4657 1.1642.4657.3104 0 .5821-.0582.8149-.1941z"></path>
    <path d="m51.6307 43.0165h-.5239s-.097-.0388-.097-.097v-4.3074s.0388-.097.097-.097h.4657s.097.0388.097.097v.3299s0 .0388.0194.0582c0 0 .0388 0 .0582-.0194.1552-.1746.3298-.3105.5239-.4075.194-.097.4074-.1358.6596-.1358.4851 0 .8538.1358 1.1254.4075.2716.2716.388.6402.388 1.0671v3.0268s-.0388.097-.097.097h-.5238s-.097-.0388-.097-.097v-2.9104c0-.3104-.0777-.5627-.2329-.7179s-.3881-.2522-.6985-.2522c-.2134 0-.4074.0582-.5821.1552-.1746.097-.3298.2716-.4462.4851-.0388.0582-.0388.1358-.0388.2134v3.0268s-.0388.097-.097.097z"></path>
    <path d="m56.5979 42.4137h2.3283s.097.0388.097.1164v.4075s-.0388.097-.097.097h-3.3567s-.1164-.0388-.1164-.097c0-.0388 0-.0776.0388-.097l2.3089-3.6477s0-.0582-.0388-.0582h-2.2119s-.097-.0388-.097-.097v-.4075s.0388-.097.097-.097h3.2209s.097.0388.097.097c0 .0388 0 .0582-.0388.097l-2.3283 3.6477s0 .0582.0388.0582z"></path>
    <path d="m61.2536 42.5309v.4268s-.0388.097-.097.097h-.1746c-.3105 0-.5433-.0776-.6985-.2134-.1747-.1358-.2523-.3686-.2523-.6791v-6.073s.0389-.097.0971-.097h.5238s.097.0388.097.097v5.976c0 .2328.097.3493.2911.3493h.1358s.097.0388.097.097z"></path>
    <path d="m63.0591 42.8416c-.3493-.194-.6209-.4656-.8149-.8343-.194-.3686-.2911-.7761-.2911-1.2417 0-.4657.0971-.8732.2911-1.2418.194-.3687.4462-.6209.7761-.8343.3298-.2135.6985-.2911 1.1253-.2911.4269 0 .7762.097 1.106.2911.3298.194.6015.4656.7761.7955.194.3492.2716.7179.2716 1.1447v.2135c0 .0582-.0388.0776-.097.0776h-3.4343s-.097.0388-.097.1358c.0583.4269.2135.7567.4851 1.0283.2716.2523.6209.3687 1.0477.3687.4851 0 .912-.194 1.2612-.5627.0776-.0776.1358-.0776.1552-.0388l.3299.3493s.0388.0776 0 .1358c-.2328.2522-.5045.4268-.7955.5626-.2911.1359-.6209.1941-.9508.1941-.4462 0-.8343-.097-1.1835-.2911zm2.5029-2.5611c-.0582-.3687-.2134-.6597-.485-.8925-.2523-.2135-.5627-.3299-.9314-.3299-.3686 0-.6791.1164-.9507.3493-.2716.2328-.4269.5238-.4851.8925v.0582s.0194.0582.0777.0582h2.6775s.097-.0388.097-.1164z"></path>
    <path d="m67.4248 37.3105c-.0971-.1164-.1553-.2328-.1553-.3687 0-.1358.0582-.2716.1553-.3686.097-.097.2328-.1552.3686-.1552s.2522.0582.3492.1552c.0971.097.1553.2328.1553.3686 0 .1359-.0582.2717-.1553.3687-.097.1164-.2134.1552-.3492.1552s-.2716-.0582-.3686-.1552zm.0193 5.6074v-4.3074s.0389-.097.0971-.097h.5238s.0971.0388.0971.097v4.3074s-.0388.097-.0971.097h-.5238s-.0971-.0388-.0971-.097z"></path>
  </g>
</svg>
